<?xml version="1.0" encoding="utf-8"?>
<!-- Generator: Adobe Illustrator 26.3.1, SVG Export Plug-In . SVG Version: 6.00 Build 0)  -->
<svg version="1.1" id="Calque_1" xmlns="http://www.w3.org/2000/svg" xmlns:xlink="http://www.w3.org/1999/xlink" x="0px" y="0px"
	 viewBox="0 0 370 370" style="enable-background:new 0 0 370 370;" xml:space="preserve">
<g transform="translate(0.000000,640.000000) scale(0.100000,-0.100000)">
	<path d="M1000,6248.9c-22-5-51-12-65-15c-44-11-134-80-174-133c-26-35-50-55-75-63c-47-15-144-63-172-86c-68-56-130-132-157-195
		l-12-28h140c145,0,207-8,302-41c170-59,289-187,334-360c18-68,24-253,11-324c-7-38-6-39,8-20c9,11,54,77,100,147s93,137,104,150
		c12,12,31,36,43,54c35,51,215,225,291,280c37,28,99,66,137,85s70,39,70,45c0,12-193,202-265,260
		C1403,6179.9,1149,6279.9,1000,6248.9z M1198,5997.9c100-21,94-43-26-87c-71-27-78-27-105-2c-36,33-26,86,18,102
		C1102,6017.9,1116,6015.9,1198,5997.9z"/>
	<path d="M2610,5653.9c-246-34-466-118-676-259c-106-71-168-124-287-244c-120-122-179-205-267-379c-181-361-231-723-154-1108
		c19-93,59-238,65-232c2,1,10,52,19,112c63,430,238,804,491,1045c296,282,672,423,1187,446l156,7l10,31c13,39,117,390,140,473
		c21,71,26,65-69,83C3021,5667.9,2784,5677.9,2610,5653.9z"/>
	<path d="M2820,4671.9c-123-9-292-49-410-95c-181-72-307-157-460-312c-181-182-296-364-365-575c-20-64-44-147-51-186
		c-19-94-19-435,0-530c17-89,41-178,51-188c4-5,13,22,19,60c28,163,102,395,168,528c189,378,502,628,928,743c63,17,128,31,155,34
		c29,3,33,14,116,303c30,105,57,198,60,208c5,15-3,17-83,15C2900,4675.9,2842,4673.9,2820,4671.9z"/>
</g>
</svg>
